<?xml version="1.0" standalone="no"?>
<!DOCTYPE svg PUBLIC "-//W3C//DTD SVG 20010904//EN"
 "http://www.w3.org/TR/2001/REC-SVG-20010904/DTD/svg10.dtd">
<svg version="1.0" xmlns="http://www.w3.org/2000/svg"
 width="640.000000pt" height="640.000000pt" viewBox="0 0 640.000000 640.000000"
 preserveAspectRatio="xMidYMid meet">
<metadata>
Created by potrace 1.14, written by Peter Selinger 2001-2017
</metadata>
<g transform="translate(0.000000,640.000000) scale(0.100000,-0.100000)"
fill="#000000" stroke="none">
<path d="M0 3200 l0 -3200 3200 0 3200 0 0 3200 0 3200 -3200 0 -3200 0 0
-3200z m2515 1246 c235 -65 452 -242 561 -457 111 -221 124 -494 35 -724 -138
-360 -524 -596 -903 -555 -121 13 -246 51 -287 86 -61 51 -63 144 -5 222 49
64 98 74 202 42 204 -64 406 -16 557 134 223 220 225 563 5 786 -116 118 -291
182 -444 164 l-71 -9 -5 -175 c-4 -146 -8 -181 -23 -203 -38 -59 -110 -77
-175 -43 -60 31 -62 43 -62 375 l0 299 68 26 c126 48 176 56 337 52 100 -2
170 -9 210 -20z m-257 -893 c83 -60 83 -216 -1 -275 -23 -17 -52 -23 -132 -29
-64 -5 -126 -17 -166 -32 -132 -47 -248 -150 -308 -271 -187 -379 81 -813 500
-809 100 1 187 24 276 73 113 62 190 51 247 -37 87 -135 -1 -240 -274 -328
-110 -36 -293 -45 -415 -22 -207 39 -411 161 -533 319 -185 241 -239 556 -143
835 47 137 104 226 216 338 108 108 199 168 323 211 159 55 354 68 410 27z
m1069 -183 c17 -33 18 -388 1 -424 -20 -46 -81 -46 -99 1 -5 13 -9 111 -9 216
0 160 3 196 16 215 22 32 74 27 91 -8z m550 6 c64 -33 79 -94 29 -118 -18 -8
-33 -4 -75 17 -78 41 -140 25 -177 -47 -53 -102 34 -240 131 -208 35 11 65 43
65 67 0 8 -14 13 -39 13 -45 0 -71 20 -71 55 0 35 28 45 118 45 101 0 118 -14
109 -92 -15 -119 -114 -205 -228 -195 -130 11 -207 92 -217 228 -4 56 -1 75
21 121 26 58 74 104 129 125 44 17 165 11 205 -11z m364 14 c18 -10 19 -23 19
-227 0 -187 -2 -219 -17 -235 -21 -24 -48 -23 -73 2 -19 19 -20 33 -20 223 0
167 3 206 16 225 16 24 44 28 75 12z m-1257 -686 c12 -11 16 -36 16 -95 l0
-79 100 0 100 0 0 77 c0 57 4 81 17 95 21 24 48 23 73 -2 19 -19 20 -33 20
-223 0 -220 -6 -247 -55 -247 -44 0 -55 24 -55 116 l0 84 -100 0 -100 0 0 -84
c0 -92 -11 -116 -55 -116 -49 0 -55 27 -55 247 0 190 1 204 20 223 24 24 53
26 74 4z m761 -6 c18 -17 45 -77 95 -216 39 -106 70 -197 70 -202 0 -19 -40
-50 -65 -50 -24 0 -40 22 -59 83 -5 14 -18 17 -91 17 -73 0 -86 -3 -91 -17
-19 -61 -35 -83 -59 -83 -27 0 -65 31 -65 53 0 8 31 99 69 203 73 197 96 234
146 234 13 0 35 -10 50 -22z m427 5 c16 -15 18 -35 18 -226 0 -182 -2 -213
-17 -229 -20 -22 -51 -23 -75 -1 -16 15 -18 35 -18 226 0 182 2 213 17 229 20
22 51 23 75 1z m302 11 c9 -3 62 -65 119 -137 l102 -131 3 119 c2 108 4 122
23 138 27 21 47 22 71 0 16 -15 18 -35 18 -229 0 -230 -3 -244 -55 -244 -19 0
-47 30 -132 140 l-108 140 -3 -122 c-3 -132 -12 -158 -58 -158 -51 0 -54 14
-54 245 0 181 2 216 16 229 16 17 33 20 58 10z"/>
<path d="M3671 2518 c-29 -86 -29 -88 24 -88 30 0 45 4 45 13 0 15 -40 137
-45 137 -2 0 -13 -28 -24 -62z"/>
</g>
</svg>
